<?xml version="1.0" encoding="UTF-8"?>
<svg id="Calque_2" data-name="Calque 2" xmlns="http://www.w3.org/2000/svg" viewBox="0 0 272.54 326.67">
  <defs>
    <style>
      .cls-1 {
        fill: #8e60e8;
        fill-rule: evenodd;
      }

      .cls-2 {
        fill: #2abbd3;
      }
    </style>
  </defs>
  <g id="Calque_1-2" data-name="Calque 1">
    <g>
      <path class="cls-2" d="M60.65,1.45C14.69,37.62-9.45,106.15,3.46,162.85c7.24-10.06,17.05-17.55,28.03-21.92,2.51-1,17.88-6.83,34.97-3.17,23.46,5.02,42.55,26.3,49.29,53.95-12.96-57.66,12.43-127.25,59.82-162.98C142.76,6.09,98.9-4,60.65,1.45Z"/>
      <path class="cls-1" d="M211.89,325.22c45.95-36.17,70.09-104.7,57.19-161.4-7.24,10.06-17.05,17.55-28.03,21.92-2.51,1-17.88,6.83-34.97,3.17-23.46-5.02-42.55-26.3-49.29-53.95,12.96,57.66-12.43,127.25-59.82,162.98,32.8,22.63,76.67,32.72,114.92,27.26Z"/>
    </g>
  </g>
</svg>