<?xml version="1.0" encoding="UTF-8"?>
<svg id="Calque_2" data-name="Calque 2" xmlns="http://www.w3.org/2000/svg" viewBox="0 0 357.77 434.37">
  <defs>
    <style>
      .cls-1 {
        fill: #8e60e8;
        fill-rule: evenodd;
      }

      .cls-2 {
        fill: #fff;
      }

      .cls-3 {
        fill: #2abbd3;
      }
    </style>
  </defs>
  <g id="Calque_1-2" data-name="Calque 1">
    <g>
      <g>
        <path class="cls-3" d="M103.42,1.37C60.11,35.46,37.35,100.05,49.52,153.49c13.65-18.96,37-28.25,59.38-23.65,24.38,5.01,43.17,25.59,46.23,50.98.07-.05.15-.09.22-.14-12.22-54.34,11.72-119.93,56.38-153.61C180.81,5.74,139.47-3.77,103.42,1.37Z"/>
        <path class="cls-1" d="M245.97,306.52c43.31-34.09,66.06-98.68,53.9-152.12-13.65,18.96-37,28.25-59.38,23.65-24.38-5.01-43.17-25.59-46.23-50.98-.07.05-.15.09-.22.14,12.22,54.34-11.72,119.93-56.38,153.61,30.92,21.33,72.26,30.84,108.31,25.7Z"/>
      </g>
      <g>
        <path class="cls-2" d="M62.2,360.26c-2.61-1.9-5.8-3.36-9.57-4.36-3.77-1.01-8-1.51-12.7-1.51-3.21,0-6.62.15-10.24.45-3.62.3-7.44.82-11.47,1.57L0,432.81h17.34l6.26-25.96h4.36c6.04,0,11.63-.52,16.78-1.57,5.15-1.04,9.62-2.76,13.42-5.15,3.8-2.39,6.79-5.52,8.95-9.4,2.16-3.88,3.24-8.61,3.24-14.21,0-3.43-.71-6.53-2.13-9.29-1.42-2.76-3.43-5.09-6.04-6.99ZM50.96,384.76c-1.01,1.75-2.42,3.19-4.25,4.31-1.83,1.12-4.03,1.92-6.6,2.41-2.57.49-5.43.73-8.56.73h-4.36l5.37-22.82c.9-.07,1.79-.15,2.69-.22.9-.07,1.98-.11,3.24-.11,4.48,0,7.92.71,10.35,2.12,2.42,1.42,3.64,3.8,3.64,7.16,0,2.54-.5,4.68-1.51,6.43Z"/>
        <path class="cls-2" d="M110.64,345.99l-17.34,2.68-14.21,59.41c-.82,3.51-1.25,6.81-1.29,9.9-.04,3.1.6,5.84,1.9,8.22,1.3,2.39,3.47,4.27,6.49,5.65,3.02,1.38,7.18,2.07,12.47,2.07l3.36-13.76c-1.94-.15-3.45-.48-4.53-1.01-1.08-.52-1.85-1.21-2.29-2.07-.45-.86-.65-1.85-.62-2.96.04-1.12.2-2.35.5-3.69l15.55-64.44Z"/>
        <path class="cls-2" d="M173.85,376.98c-2.16-1.04-4.44-1.86-6.82-2.46-2.39-.6-4.66-1.02-6.82-1.29-2.16-.26-4.08-.43-5.76-.5-1.68-.07-2.85-.11-3.52-.11-5.15,0-9.92.97-14.32,2.91-4.4,1.94-8.22,4.61-11.47,8-3.24,3.39-5.78,7.37-7.61,11.91-1.83,4.55-2.74,9.4-2.74,14.54,0,3.36.37,6.51,1.12,9.45.74,2.95,1.96,5.52,3.64,7.72,1.68,2.2,3.84,3.95,6.49,5.26,2.65,1.3,5.83,1.96,9.56,1.96,3.13,0,5.97-.56,8.5-1.68,2.53-1.12,4.85-2.53,6.94-4.25.37,1.05.74,1.98,1.12,2.8.37.82.78,1.68,1.23,2.57l14.88-2.13c-1.27-3.36-2.13-7.18-2.57-11.47-.45-4.29-.15-8.56.9-12.81l7.27-30.43ZM150.58,404.5c-.37,1.72-.73,3.6-1.06,5.65-.34,2.05-.58,4.01-.73,5.87-1.57,1.57-3.04,2.69-4.42,3.36-1.38.67-2.93,1.01-4.64,1.01-3.21,0-5.41-1.04-6.6-3.13-1.19-2.09-1.79-4.92-1.79-8.5,0-2.91.46-5.71,1.4-8.39.93-2.68,2.22-5.05,3.86-7.1,1.64-2.05,3.56-3.71,5.76-4.98,2.2-1.27,4.57-1.9,7.1-1.9,1.12,0,2.07.04,2.85.11.78.08,1.66.19,2.63.33l-4.36,17.68Z"/>
        <path class="cls-2" d="M214.01,372.39c-8.5,0-14.97,1.75-19.41,5.26-4.44,3.51-6.66,8.28-6.66,14.32,0,2.31.35,4.31,1.06,5.99s1.68,3.17,2.91,4.47c1.23,1.31,2.67,2.42,4.31,3.36,1.64.93,3.39,1.81,5.26,2.63,1.64.75,2.98,1.4,4.03,1.96,1.04.56,1.86,1.1,2.46,1.62.6.52,1.03,1.08,1.29,1.68.26.6.39,1.31.39,2.13,0,1.27-.71,2.44-2.12,3.52-1.42,1.08-4.03,1.62-7.83,1.62s-7.05-.56-9.73-1.68c-2.68-1.12-4.66-2.05-5.93-2.8l-5.71,12.75c.67.37,1.62.86,2.85,1.45,1.23.6,2.74,1.17,4.53,1.73,1.79.56,3.86,1.02,6.21,1.4,2.35.37,4.98.56,7.89.56,4.7,0,8.73-.56,12.08-1.68,3.36-1.12,6.12-2.57,8.28-4.36,2.16-1.79,3.75-3.84,4.75-6.15,1.01-2.31,1.51-4.66,1.51-7.05s-.26-4.33-.78-6.04c-.52-1.71-1.36-3.25-2.52-4.59-1.16-1.34-2.71-2.61-4.64-3.8-1.94-1.19-4.36-2.5-7.27-3.92-2.09-1.04-3.71-1.94-4.87-2.68-1.16-.75-1.73-1.86-1.73-3.36,0-1.12.26-2.01.78-2.68.52-.67,1.21-1.19,2.07-1.57.86-.37,1.79-.62,2.8-.73,1.01-.11,2.03-.17,3.08-.17,2.38,0,4.81.37,7.27,1.12,2.46.75,4.47,1.53,6.04,2.35l5.71-12.42c-1.94-1.04-4.47-2.01-7.61-2.91-3.13-.89-6.71-1.34-10.74-1.34Z"/>
        <path class="cls-2" d="M271.4,372.39c-8.5,0-14.97,1.75-19.41,5.26-4.44,3.51-6.66,8.28-6.66,14.32,0,2.31.35,4.31,1.06,5.99s1.68,3.17,2.91,4.47c1.23,1.31,2.67,2.42,4.31,3.36,1.64.93,3.39,1.81,5.26,2.63,1.64.75,2.98,1.4,4.03,1.96,1.04.56,1.86,1.1,2.46,1.62.6.52,1.03,1.08,1.29,1.68.26.6.39,1.31.39,2.13,0,1.27-.71,2.44-2.12,3.52-1.42,1.08-4.03,1.62-7.83,1.62s-7.05-.56-9.73-1.68c-2.68-1.12-4.66-2.05-5.93-2.8l-5.71,12.75c.67.37,1.62.86,2.85,1.45,1.23.6,2.74,1.17,4.53,1.73,1.79.56,3.86,1.02,6.21,1.4,2.35.37,4.98.56,7.89.56,4.7,0,8.73-.56,12.08-1.68,3.36-1.12,6.12-2.57,8.28-4.36,2.16-1.79,3.75-3.84,4.75-6.15,1.01-2.31,1.51-4.66,1.51-7.05s-.26-4.33-.78-6.04c-.52-1.71-1.36-3.25-2.52-4.59-1.16-1.34-2.71-2.61-4.64-3.8-1.94-1.19-4.36-2.5-7.27-3.92-2.09-1.04-3.71-1.94-4.87-2.68-1.16-.75-1.73-1.86-1.73-3.36,0-1.12.26-2.01.78-2.68.52-.67,1.21-1.19,2.07-1.57.86-.37,1.79-.62,2.8-.73,1.01-.11,2.03-.17,3.08-.17,2.38,0,4.81.37,7.27,1.12,2.46.75,4.47,1.53,6.04,2.35l5.71-12.42c-1.94-1.04-4.47-2.01-7.61-2.91-3.13-.89-6.71-1.34-10.74-1.34Z"/>
        <path class="cls-2" d="M350.5,407.41l7.27-30.43c-2.16-1.04-4.44-1.86-6.82-2.46-2.39-.6-4.66-1.02-6.82-1.29-2.16-.26-4.08-.43-5.76-.5-1.68-.07-2.85-.11-3.53-.11-5.14,0-9.92.97-14.32,2.91-4.4,1.94-8.22,4.61-11.47,8-3.25,3.39-5.78,7.37-7.61,11.91-1.83,4.55-2.74,9.4-2.74,14.54,0,3.36.37,6.51,1.12,9.45.74,2.95,1.96,5.52,3.64,7.72,1.68,2.2,3.84,3.95,6.49,5.26,2.65,1.3,5.83,1.96,9.56,1.96,3.13,0,5.97-.56,8.5-1.68,2.54-1.12,4.85-2.53,6.94-4.25.37,1.05.74,1.98,1.12,2.8.37.82.78,1.68,1.23,2.57l14.88-2.13c-1.27-3.36-2.13-7.18-2.57-11.47-.45-4.29-.15-8.56.89-12.81ZM334.5,404.5c-.38,1.72-.73,3.6-1.06,5.65-.33,2.05-.58,4.01-.73,5.87-1.57,1.57-3.04,2.69-4.42,3.36-1.38.67-2.93,1.01-4.64,1.01-3.21,0-5.41-1.04-6.6-3.13-1.19-2.09-1.79-4.92-1.79-8.5,0-2.91.46-5.71,1.4-8.39.93-2.68,2.22-5.05,3.86-7.1,1.64-2.05,3.56-3.71,5.76-4.98,2.2-1.27,4.57-1.9,7.1-1.9,1.12,0,2.07.04,2.85.11.78.08,1.66.19,2.63.33l-4.36,17.68Z"/>
      </g>
    </g>
  </g>
</svg>